<svg width="200" height="200" viewBox="0 0 200 200" xmlns="http://www.w3.org/2000/svg">
  <defs>
    <linearGradient id="body" x1="0" y1="0" x2="0" y2="1">
      <stop offset="0%" stop-color="#4b0000"/>
      <stop offset="55%" stop-color="#110000"/>
      <stop offset="100%" stop-color="#000000"/>
    </linearGradient>
    <radialGradient id="core" cx="50%" cy="50%" r="50%">
      <stop offset="0%" stop-color="#ffffff"/>
      <stop offset="35%" stop-color="#ffcc00"/>
      <stop offset="100%" stop-color="#990000"/>
    </radialGradient>
  </defs>
  <g transform="translate(100,92) scale(0.68)">
    <circle cx="0" cy="0" r="140" fill="#ff0000" fill-opacity="0.2"/>
    <circle cx="0" cy="0" r="115" fill="none" stroke="#ff0000" stroke-width="3" stroke-dasharray="30 15 10 15"/>
    <path d="M-130,-70 L-70,50 L-30,90 L30,90 L70,50 L130,-70 L80,-90 L0,-40 L-80,-90 Z" fill="url(#body)" stroke="#ff0000" stroke-width="4"/>
    <rect x="-100" y="20" width="30" height="50" rx="4" fill="#220000" stroke="#ff0000"/>
    <polygon points="-93,70 -85,105 -77,70" fill="#110000" stroke="#ff0000"/>
    <rect x="70" y="20" width="30" height="50" rx="4" fill="#220000" stroke="#ff0000"/>
    <polygon points="77,70 85,105 93,70" fill="#110000" stroke="#ff0000"/>
    <polygon points="-25,40 0,105 25,40" fill="#000000" stroke="#ff0000" stroke-width="2"/>
    <circle cx="0" cy="-10" r="32" fill="url(#core)"/>
    <circle cx="-48" cy="8" r="12" fill="#ffcc00"/>
    <circle cx="48" cy="8" r="12" fill="#ffcc00"/>
    <circle cx="-48" cy="8" r="5" fill="#ffffff"/>
    <circle cx="48" cy="8" r="5" fill="#ffffff"/>
    <line x1="-50" y1="-40" x2="-20" y2="-20" stroke="#00ffcc" stroke-width="3"/>
    <line x1="50" y1="-40" x2="20" y2="-20" stroke="#00ffcc" stroke-width="3"/>
  </g>
</svg>
